HIERARCHY
ROOT joint_Root
{
	OFFSET 0.0 0.0 0.0
	CHANNELS 6 Xposition Yposition Zposition Zrotation Xrotation Yrotation 
	JOINT Hips
	{
		OFFSET 4.5925 91.4895 -427.239
		CHANNELS 6 Xposition Yposition Zposition Zrotation Xrotation Yrotation 
		JOINT Spine
		{
			OFFSET 15.7357 0.0 0.0
			CHANNELS 6 Xposition Yposition Zposition Zrotation Xrotation Yrotation 
			JOINT Chest
			{
				OFFSET 8.98455 -0.406207 0.0
				CHANNELS 6 Xposition Yposition Zposition Zrotation Xrotation Yrotation 
				JOINT Neck
				{
					OFFSET 16.3773 0.0 0.0
					CHANNELS 6 Xposition Yposition Zposition Zrotation Xrotation Yrotation 
					JOINT Head
					{
						OFFSET 6.45672 0.0 0.0
						CHANNELS 6 Xposition Yposition Zposition Zrotation Xrotation Yrotation 
						End Site
						{
							OFFSET 0.0 0.0 0.0
						}
					}
				}
				JOINT Shoulder_L
				{
					OFFSET 12.9942 -0.242716 4.98039
					CHANNELS 6 Xposition Yposition Zposition Zrotation Xrotation Yrotation 
					JOINT UpperArm_L
					{
						OFFSET 5.34809 0.0 0.0
						CHANNELS 6 Xposition Yposition Zposition Zrotation Xrotation Yrotation 
						JOINT LowerArm_L
						{
							OFFSET 24.3286 1.87007e-05 0.0
							CHANNELS 6 Xposition Yposition Zposition Zrotation Xrotation Yrotation 
							JOINT Hand_L
							{
								OFFSET 22.2916 0.0 0.0
								CHANNELS 6 Xposition Yposition Zposition Zrotation Xrotation Yrotation 
								End Site
								{
									OFFSET 0.0 0.0 0.0
								}
							}
						}
					}
				}
				JOINT Shoulder_R
				{
					OFFSET 12.9945 -0.242716 -4.98039
					CHANNELS 6 Xposition Yposition Zposition Zrotation Xrotation Yrotation 
					JOINT UpperArm_R
					{
						OFFSET -5.34813 0.0 0.0
						CHANNELS 6 Xposition Yposition Zposition Zrotation Xrotation Yrotation 
						JOINT LowerArm_R
						{
							OFFSET -24.3289 0.000322201 0.0
							CHANNELS 6 Xposition Yposition Zposition Zrotation Xrotation Yrotation 
							JOINT Hand_R
							{
								OFFSET -22.2915 -0.000108084 0.0
								CHANNELS 6 Xposition Yposition Zposition Zrotation Xrotation Yrotation 
								End Site
								{
									OFFSET 0.0 0.0 0.0
								}
							}
						}
					}
				}
			}
		}
		JOINT UpperLeg_L
		{
			OFFSET -2.19248 -6.46944 0.0
			CHANNELS 6 Xposition Yposition Zposition Zrotation Xrotation Yrotation 
			JOINT LowerLeg_L
			{
				OFFSET 39.0811 0.0 -1.23785e-05
				CHANNELS 6 Xposition Yposition Zposition Zrotation Xrotation Yrotation 
				JOINT Foot_L
				{
					OFFSET 40.9854 0.0 -1.26872e-05
					CHANNELS 6 Xposition Yposition Zposition Zrotation Xrotation Yrotation 
					JOINT Toes_L
					{
						OFFSET 11.7543 0.0 0.0
						CHANNELS 6 Xposition Yposition Zposition Zrotation Xrotation Yrotation 
						End Site
						{
							OFFSET 0.0 0.0 0.0
						}
					}
				}
			}
		}
		JOINT UpperLeg_R
		{
			OFFSET -2.19251 6.46944 0.0
			CHANNELS 6 Xposition Yposition Zposition Zrotation Xrotation Yrotation 
			JOINT LowerLeg_R
			{
				OFFSET -39.0811 -0.00228153 -0.0401928
				CHANNELS 6 Xposition Yposition Zposition Zrotation Xrotation Yrotation 
				JOINT Foot_R
				{
					OFFSET -40.9854 0.0 0.0
					CHANNELS 6 Xposition Yposition Zposition Zrotation Xrotation Yrotation 
					JOINT Toes_R
					{
						OFFSET -11.7543 0.0 0.0
						CHANNELS 6 Xposition Yposition Zposition Zrotation Xrotation Yrotation 
						End Site
						{
							OFFSET 0.0 0.0 0.0
						}
					}
				}
			}
		}
	}
}
MOTION
Frames:	8
Frame Time:	0.0333333
0.000000 0.000000 0.000000 0.000000 0.000000 -0.000000 -0.121534 91.200000 1.543280 91.772600 1.672610 6.235040 15.735700 0.000005 -0.000001 88.332200 83.930300 -84.263100 8.984550 -0.406207 -0.000000 4.398050 -0.471835 8.147280 16.377300 -0.000001 -0.000001 13.864000 -6.143280 2.904850 6.456720 -0.000001 -0.000000 -3.896690 -8.214430 -1.377900 12.994200 -0.242716 4.980390 -87.833600 -4.064990 -61.913700 5.348090 -0.000007 -0.000001 -50.731500 -60.686300 -59.601200 24.328600 0.000019 0.000005 -4.015810 -10.752200 -20.623600 22.291600 -0.000001 0.000005 27.119500 4.496310 16.662100 12.994500 -0.242716 -4.980390 87.787900 5.991160 -69.691200 -5.348130 -0.000001 -0.000004 -60.798300 9.812490 -3.042800 -24.328900 0.000322 -0.000009 -5.127550 -11.364200 -24.480000 -22.291500 -0.000108 -0.000004 20.429100 5.468660 -5.319780 -2.192480 -6.469440 -0.000000 -177.260000 -11.720400 -1.339300 39.081100 -0.000007 -0.000012 -0.176193 0.351740 26.607400 40.985400 -0.000006 -0.000013 0.427547 8.159530 -68.906300 11.754300 -0.000000 0.000003 -0.000128 -0.001274 -16.626200 -2.192510 6.469440 -0.000001 171.589000 24.696300 179.826000 -39.081100 -0.002282 -0.040193 -0.223149 0.419390 28.367700 -40.985400 0.000008 0.000006 2.379250 13.313700 -70.882700 -11.754300 -0.000006 -0.000006 -0.001008 -0.015526 -17.204600
0.000000 0.000000 0.000000 0.000000 0.000000 -0.000000 -0.389400 91.274800 1.465700 91.804900 3.057600 5.985980 15.735700 0.000005 -0.000001 89.200600 84.235700 -85.451100 8.984550 -0.406207 -0.000000 3.782070 -0.290617 7.500360 16.377300 -0.000001 -0.000001 13.349300 -5.799560 0.573916 6.456720 -0.000001 -0.000000 -4.222350 -7.455110 -2.343450 12.994200 -0.242716 4.980390 -87.276800 -5.047680 -61.605100 5.348090 -0.000007 -0.000001 -53.436100 -58.421600 -67.753800 24.328600 0.000019 0.000005 -3.774250 -8.048930 -25.235700 22.291600 -0.000001 0.000005 27.254300 4.654680 13.960500 12.994500 -0.242716 -4.980390 87.675500 6.305570 -69.715900 -5.348130 -0.000001 -0.000004 -61.056700 11.858900 -1.653480 -24.328900 0.000322 -0.000009 -4.245920 -10.554700 -22.053400 -22.291500 -0.000108 -0.000004 19.092700 5.454070 -4.773520 -2.192480 -6.469440 -0.000000 -177.217000 -10.995000 -1.611480 39.081100 -0.000007 -0.000012 -0.172300 0.349984 26.211700 40.985400 -0.000006 -0.000013 0.368612 8.826430 -68.500400 11.754300 -0.000000 0.000003 -0.000118 -0.001184 -16.622800 -2.192510 6.469440 -0.000001 171.772000 25.498000 179.983000 -39.081100 -0.002282 -0.040193 -0.217174 0.416099 27.918300 -40.985400 0.000008 0.000006 2.344480 12.659800 -70.756000 -11.754300 -0.000006 -0.000006 -0.001169 -0.017784 -17.296300
0.000000 0.000000 0.000000 0.000000 0.000000 -0.000000 -0.677924 91.324900 1.324980 91.855600 4.412320 5.631780 15.735700 0.000005 -0.000001 89.970600 84.514200 -86.686100 8.984550 -0.406207 -0.000000 3.217890 -0.135719 6.565910 16.377300 -0.000001 -0.000001 12.868600 -5.252210 -1.811720 6.456720 -0.000001 -0.000000 -4.472940 -6.802930 -2.931900 12.994200 -0.242716 4.980390 -86.506900 -6.343570 -61.081600 5.348090 -0.000007 -0.000001 -50.519300 -56.745400 -72.897200 24.328600 0.000019 0.000005 -3.974160 -5.953570 -33.843000 22.291600 -0.000001 0.000005 27.639600 4.904430 9.312660 12.994500 -0.242716 -4.980390 87.662000 6.477150 -70.103500 -5.348130 -0.000001 -0.000004 -61.835400 13.133000 -0.416994 -24.328900 0.000322 -0.000009 -2.439940 -7.085880 -19.039500 -22.291500 -0.000108 -0.000004 15.900400 5.416460 -3.465690 -2.192480 -6.469440 -0.000000 -177.200000 -10.312600 -2.159440 39.081100 -0.000007 -0.000012 -0.172209 0.353121 25.997600 40.985400 -0.000006 -0.000013 0.309644 9.514550 -68.107600 11.754300 -0.000000 0.000003 -0.000118 -0.001188 -16.623000 -2.192510 6.469440 -0.000001 172.105000 26.070400 179.815000 -39.081100 -0.002282 -0.040193 -0.211393 0.409413 27.673200 -40.985400 0.000008 0.000006 2.308200 11.778800 -70.675200 -11.754300 -0.000006 -0.000006 -0.001076 -0.016486 -17.243600
0.000000 0.000000 0.000000 0.000000 0.000000 -0.000000 -0.964796 91.360800 1.219010 91.798000 5.721710 5.479990 15.735700 0.000005 -0.000001 89.739700 84.641800 -86.919200 8.984550 -0.406207 -0.000000 2.960650 -0.166739 5.639380 16.377300 -0.000001 -0.000001 12.315900 -4.686740 -3.850650 6.456720 -0.000001 -0.000000 -4.408600 -6.533100 -3.045210 12.994200 -0.242716 4.980390 -85.686500 -7.550830 -60.144900 5.348090 -0.000007 -0.000001 -48.640800 -56.748700 -79.412600 24.328600 0.000019 0.000005 -0.410248 -0.408653 -46.851700 22.291600 -0.000001 0.000005 31.404600 5.229720 2.030310 12.994500 -0.242716 -4.980390 87.769800 6.384370 -70.699000 -5.348130 -0.000001 -0.000004 -62.923800 13.988900 0.512889 -24.328900 0.000322 -0.000009 -1.034010 -3.504900 -16.419900 -22.291500 -0.000108 -0.000004 13.135500 5.373030 -2.072870 -2.192480 -6.469440 -0.000000 -177.083000 -9.354160 -2.531420 39.081100 -0.000007 -0.000012 -0.170365 0.350961 25.893300 40.985400 -0.000006 -0.000013 0.181065 9.887080 -67.813900 11.754300 -0.000000 0.000003 -0.000117 -0.001179 -16.622600 -2.192510 6.469440 -0.000001 172.335000 27.040500 179.936000 -39.081100 -0.002282 -0.040193 -0.203818 0.399514 27.404400 -40.985400 0.000008 0.000006 2.386450 11.362400 -70.623100 -11.754300 -0.000006 -0.000006 -0.001046 -0.016060 -17.226300
0.000000 0.000000 0.000000 0.000000 0.000000 -0.000000 -1.192240 91.387900 1.131750 91.685800 6.654810 5.373400 15.735700 0.000005 -0.000001 87.913000 84.689200 -85.538500 8.984550 -0.406207 -0.000000 2.863090 -0.487910 4.756310 16.377300 -0.000001 -0.000001 11.845900 -4.060660 -5.553190 6.456720 -0.000001 -0.000000 -4.145860 -6.385370 -2.415420 12.994200 -0.242716 4.980390 -84.884300 -8.561800 -58.980900 5.348090 -0.000007 -0.000001 -46.666100 -58.997400 -86.091200 24.328600 0.000019 0.000005 11.909200 6.384040 -62.135400 22.291600 -0.000001 0.000005 37.183500 5.424280 -3.596660 12.994500 -0.242716 -4.980390 87.951900 6.087760 -71.366100 -5.348130 -0.000001 -0.000004 -64.093800 14.313300 0.895029 -24.328900 0.000322 -0.000009 -0.275564 -1.065060 -14.441400 -22.291500 -0.000108 -0.000004 11.862900 5.338500 -1.034990 -2.192480 -6.469440 -0.000000 -176.900000 -8.762040 -2.837320 39.081100 -0.000007 -0.000012 -0.169571 0.349902 25.856200 40.985400 -0.000006 -0.000013 0.085906 10.203600 -67.604400 11.754300 -0.000000 0.000003 -0.000117 -0.001175 -16.622500 -2.192510 6.469440 -0.000001 172.534000 27.956100 -179.945000 -39.081100 -0.002282 -0.040193 -0.200151 0.396646 27.155700 -40.985400 0.000008 0.000006 2.500250 11.266000 -70.563500 -11.754300 -0.000006 -0.000006 -0.001085 -0.016609 -17.248500
0.000000 0.000000 0.000000 0.000000 0.000000 -0.000000 -1.325040 91.405500 1.005850 91.550500 6.798100 5.200410 15.735700 0.000005 -0.000001 85.788500 84.705400 -83.726300 8.984550 -0.406207 -0.000000 2.813820 -0.865981 4.141340 16.377300 -0.000001 -0.000001 11.581100 -3.633230 -7.097910 6.456720 -0.000001 -0.000000 -4.362860 -6.335750 -1.630090 12.994200 -0.242716 4.980390 -83.919000 -9.787670 -57.926700 5.348090 -0.000007 -0.000001 -40.348800 -63.562100 -87.664500 24.328600 0.000019 0.000005 23.465100 8.494680 -71.201700 22.291600 -0.000001 0.000005 49.910500 5.562630 -9.249020 12.994500 -0.242716 -4.980390 88.188400 5.547040 -71.881800 -5.348130 -0.000001 -0.000004 -65.243300 13.692100 0.847820 -24.328900 0.000322 -0.000009 -0.080756 -0.329073 -13.614800 -22.291500 -0.000108 -0.000004 12.611800 5.325030 -0.641201 -2.192480 -6.469440 -0.000000 -176.782000 -8.406800 -3.186370 39.081100 -0.000007 -0.000012 -0.168838 0.347820 25.893000 40.985400 -0.000006 -0.000013 -0.044112 10.016300 -67.485800 11.754300 -0.000000 0.000003 -0.000103 -0.001058 -16.618100 -2.192510 6.469440 -0.000001 172.848000 28.311100 179.833000 -39.081100 -0.002282 -0.040193 -0.196294 0.391017 27.043100 -40.985400 0.000008 0.000006 2.635110 11.369800 -70.468300 -11.754300 -0.000006 -0.000006 -0.001204 -0.018258 -17.315600
0.000000 0.000000 0.000000 0.000000 0.000000 -0.000000 -1.280910 91.456100 0.870140 91.471600 5.620030 4.934740 15.735700 0.000005 -0.000001 86.289700 84.761300 -84.212500 8.984550 -0.406207 -0.000000 2.706920 -0.769031 4.168280 16.377300 -0.000001 -0.000001 11.505300 -3.085050 -8.462310 6.456720 -0.000001 -0.000000 -4.717040 -6.575960 -1.518840 12.994200 -0.242716 4.980390 -82.911700 -10.844300 -56.537800 5.348090 -0.000007 -0.000001 -36.179000 -66.033700 -86.187100 24.328600 0.000019 0.000005 26.837700 10.505200 -70.177100 22.291600 -0.000001 0.000005 57.889700 5.539890 -8.228720 12.994500 -0.242716 -4.980390 88.442800 4.859520 -72.208100 -5.348130 -0.000001 -0.000004 -65.767300 12.885300 0.793537 -24.328900 0.000322 -0.000009 -0.439370 -1.673280 -14.667900 -22.291500 -0.000108 -0.000004 14.455700 5.332440 -0.853263 -2.192480 -6.469440 -0.000000 -176.773000 -9.004810 -3.298580 39.081100 -0.000007 -0.000012 -0.167205 0.348172 25.652300 40.985400 -0.000006 -0.000013 -0.155161 9.439780 -67.365800 11.754300 -0.000000 0.000003 -0.000108 -0.001099 -16.619700 -2.192510 6.469440 -0.000001 173.279000 27.386600 179.228000 -39.081100 -0.002282 -0.040193 -0.186797 0.374713 26.900500 -40.985400 0.000008 0.000006 2.749340 11.539100 -70.216900 -11.754300 -0.000006 -0.000006 -0.001060 -0.016259 -17.234400
0.000000 0.000000 0.000000 0.000000 0.000000 -0.000000 -1.118240 91.524400 0.698351 91.451100 3.606370 4.524170 15.735700 0.000005 -0.000001 89.270400 84.802100 -86.990800 8.984550 -0.406207 -0.000000 2.637620 -0.234178 4.560020 16.377300 -0.000001 -0.000001 11.266000 -3.016090 -8.313140 6.456720 -0.000001 -0.000000 -4.880670 -6.389110 -2.038790 12.994200 -0.242716 4.980390 -82.997800 -10.611200 -56.296800 5.348090 -0.000007 -0.000001 -34.312100 -67.204000 -82.145000 24.328600 0.000019 0.000005 18.616100 11.048200 -60.340600 22.291600 -0.000001 0.000005 45.657400 5.515250 -6.957380 12.994500 -0.242716 -4.980390 88.463100 4.809160 -72.254300 -5.348130 -0.000001 -0.000004 -65.346700 12.512500 0.846141 -24.328900 0.000322 -0.000009 -1.328170 -4.252800 -17.337100 -22.291500 -0.000108 -0.000004 16.300100 5.373700 -2.095040 -2.192480 -6.469440 -0.000000 -176.924000 -10.043000 -3.382400 39.081100 -0.000007 -0.000012 -0.161633 0.342679 25.252200 40.985400 -0.000006 -0.000013 -0.274795 8.460530 -67.240000 11.754300 -0.000000 0.000003 -0.000106 -0.001079 -16.618900 -2.192510 6.469440 -0.000001 173.663000 26.191200 178.306000 -39.081100 -0.002282 -0.040193 -0.175198 0.353549 26.789400 -40.985400 0.000008 0.000006 2.965920 12.234000 -69.885200 -11.754300 -0.000006 -0.000006 -0.001139 -0.017361 -17.279200
